<svg width="14" height="15" fill="none" xmlns="http://www.w3.org/2000/svg"><path d="M14 11.004v2.213c0 .205-.04.409-.118.597a1.477 1.477 0 01-.338.496 1.396 1.396 0 01-.501.31c-.186.066-.383.09-.578.072a13.53 13.53 0 01-6.075-2.264 14.073 14.073 0 01-4.223-4.425A15.052 15.052 0 01.006 1.608 1.524 1.524 0 01.368.481 1.4 1.4 0 01.84.126 1.34 1.34 0 011.407 0h2.111a1.37 1.37 0 01.932.357c.26.233.428.557.476.912.09.708.255 1.403.493 2.072.095.264.115.551.059.827a1.498 1.498 0 01-.376.73l-.894.936a11.547 11.547 0 004.224 4.425l.894-.936a1.39 1.39 0 01.696-.394c.263-.059.537-.037.789.062.639.25 1.302.423 1.978.516.342.05.654.231.877.507.223.276.342.629.334.99z" fill="#F40004"/></svg>