<svg width="190" height="30" viewBox="0 0 190 30" fill="none" xmlns="http://www.w3.org/2000/svg">
<g clip-path="url(#clip0_2014_75)">
<path d="M15.0003 24.0881L7.13091 28.875C6.92556 28.9997 6.68794 29.0609 6.44789 29.051C6.20784 29.041 5.97608 28.9604 5.78174 28.8191C5.58739 28.6779 5.43913 28.4823 5.35558 28.2571C5.27204 28.0318 5.25693 27.7869 5.31216 27.5531L7.43091 18.5906L0.450288 12.5831C0.26788 12.4265 0.135857 12.2195 0.0708274 11.988C0.0057977 11.7566 0.0106667 11.5111 0.0848217 11.2824C0.158977 11.0537 0.299105 10.8521 0.487578 10.7029C0.676051 10.5536 0.904449 10.4635 1.14404 10.4437L10.324 9.68996L13.8753 1.19434C13.9678 0.972233 14.124 0.782492 14.3242 0.649025C14.5244 0.515557 14.7597 0.444336 15.0003 0.444336C15.2409 0.444336 15.4761 0.515557 15.6763 0.649025C15.8765 0.782492 16.0327 0.972233 16.1253 1.19434L19.6784 9.69184L28.8584 10.4456C29.0976 10.4657 29.3255 10.556 29.5135 10.7051C29.7016 10.8542 29.8415 11.0555 29.9155 11.2838C29.9896 11.5121 29.9947 11.7572 29.93 11.9883C29.8654 12.2195 29.7339 12.4264 29.5522 12.5831L22.5697 18.5887L24.6884 27.5512C24.7441 27.7852 24.7294 28.0304 24.646 28.256C24.5627 28.4816 24.4145 28.6774 24.22 28.819C24.0256 28.9605 23.7936 29.0413 23.5533 29.0513C23.313 29.0613 23.0752 28.9999 22.8697 28.875L15.0003 24.0881Z" fill="#F2C200"/>
</g>
<g clip-path="url(#clip1_2014_75)">
<path d="M55.0003 24.0881L47.1309 28.875C46.9256 28.9997 46.6879 29.0609 46.4479 29.051C46.2078 29.041 45.9761 28.9604 45.7817 28.8191C45.5874 28.6779 45.4391 28.4823 45.3556 28.2571C45.272 28.0318 45.2569 27.7869 45.3122 27.5531L47.4309 18.5906L40.4503 12.5831C40.2679 12.4265 40.1359 12.2195 40.0708 11.988C40.0058 11.7566 40.0107 11.5111 40.0848 11.2824C40.159 11.0537 40.2991 10.8521 40.4876 10.7029C40.6761 10.5536 40.9044 10.4635 41.144 10.4437L50.324 9.68996L53.8753 1.19434C53.9678 0.972233 54.124 0.782492 54.3242 0.649025C54.5244 0.515557 54.7597 0.444336 55.0003 0.444336C55.2409 0.444336 55.4761 0.515557 55.6763 0.649025C55.8765 0.782492 56.0327 0.972233 56.1253 1.19434L59.6784 9.69184L68.8584 10.4456C69.0976 10.4657 69.3255 10.556 69.5135 10.7051C69.7016 10.8542 69.8415 11.0555 69.9155 11.2838C69.9896 11.5121 69.9947 11.7572 69.93 11.9883C69.8654 12.2195 69.7339 12.4264 69.5522 12.5831L62.5697 18.5887L64.6884 27.5512C64.7441 27.7852 64.7294 28.0304 64.646 28.256C64.5627 28.4816 64.4145 28.6774 64.22 28.819C64.0256 28.9605 63.7936 29.0413 63.5533 29.0513C63.313 29.0613 63.0752 28.9999 62.8697 28.875L55.0003 24.0881Z" fill="#F2C200"/>
</g>
<g clip-path="url(#clip2_2014_75)">
<path d="M95.0003 24.0881L87.1309 28.875C86.9256 28.9997 86.6879 29.0609 86.4479 29.051C86.2078 29.041 85.9761 28.9604 85.7817 28.8191C85.5874 28.6779 85.4391 28.4823 85.3556 28.2571C85.272 28.0318 85.2569 27.7869 85.3122 27.5531L87.4309 18.5906L80.4503 12.5831C80.2679 12.4265 80.1359 12.2195 80.0708 11.988C80.0058 11.7566 80.0107 11.5111 80.0848 11.2824C80.159 11.0537 80.2991 10.8521 80.4876 10.7029C80.6761 10.5536 80.9044 10.4635 81.144 10.4437L90.324 9.68996L93.8753 1.19434C93.9678 0.972233 94.124 0.782492 94.3242 0.649025C94.5244 0.515557 94.7597 0.444336 95.0003 0.444336C95.2409 0.444336 95.4761 0.515557 95.6763 0.649025C95.8765 0.782492 96.0327 0.972233 96.1253 1.19434L99.6784 9.69184L108.858 10.4456C109.098 10.4657 109.325 10.556 109.514 10.7051C109.702 10.8542 109.841 11.0555 109.916 11.2838C109.99 11.5121 109.995 11.7572 109.93 11.9883C109.865 12.2195 109.734 12.4264 109.552 12.5831L102.57 18.5887L104.688 27.5512C104.744 27.7852 104.729 28.0304 104.646 28.256C104.563 28.4816 104.414 28.6774 104.22 28.819C104.026 28.9605 103.794 29.0413 103.553 29.0513C103.313 29.0613 103.075 28.9999 102.87 28.875L95.0003 24.0881Z" fill="#F2C200"/>
</g>
<g clip-path="url(#clip3_2014_75)">
<path d="M135 24.0881L127.131 28.875C126.926 28.9997 126.688 29.0609 126.448 29.051C126.208 29.041 125.976 28.9604 125.782 28.8191C125.587 28.6779 125.439 28.4823 125.356 28.2571C125.272 28.0318 125.257 27.7869 125.312 27.5531L127.431 18.5906L120.45 12.5831C120.268 12.4265 120.136 12.2195 120.071 11.988C120.006 11.7566 120.011 11.5111 120.085 11.2824C120.159 11.0537 120.299 10.8521 120.488 10.7029C120.676 10.5536 120.904 10.4635 121.144 10.4437L130.324 9.68996L133.875 1.19434C133.968 0.972233 134.124 0.782492 134.324 0.649025C134.524 0.515557 134.76 0.444336 135 0.444336C135.241 0.444336 135.476 0.515557 135.676 0.649025C135.877 0.782492 136.033 0.972233 136.125 1.19434L139.678 9.69184L148.858 10.4456C149.098 10.4657 149.325 10.556 149.514 10.7051C149.702 10.8542 149.841 11.0555 149.916 11.2838C149.99 11.5121 149.995 11.7572 149.93 11.9883C149.865 12.2195 149.734 12.4264 149.552 12.5831L142.57 18.5887L144.688 27.5512C144.744 27.7852 144.729 28.0304 144.646 28.256C144.563 28.4816 144.414 28.6774 144.22 28.819C144.026 28.9605 143.794 29.0413 143.553 29.0513C143.313 29.0613 143.075 28.9999 142.87 28.875L135 24.0881Z" fill="#F2C200"/>
</g>
<g clip-path="url(#clip4_2014_75)">
<path d="M175 24.0881L167.131 28.875C166.926 28.9997 166.688 29.0609 166.448 29.051C166.208 29.041 165.976 28.9604 165.782 28.8191C165.587 28.6779 165.439 28.4823 165.356 28.2571C165.272 28.0318 165.257 27.7869 165.312 27.5531L167.431 18.5906L160.45 12.5831C160.268 12.4265 160.136 12.2195 160.071 11.988C160.006 11.7566 160.011 11.5111 160.085 11.2824C160.159 11.0537 160.299 10.8521 160.488 10.7029C160.676 10.5536 160.904 10.4635 161.144 10.4437L170.324 9.68996L173.875 1.19434C173.968 0.972233 174.124 0.782492 174.324 0.649025C174.524 0.515557 174.76 0.444336 175 0.444336C175.241 0.444336 175.476 0.515557 175.676 0.649025C175.877 0.782492 176.033 0.972233 176.125 1.19434L179.678 9.69184L188.858 10.4456C189.098 10.4657 189.325 10.556 189.514 10.7051C189.702 10.8542 189.841 11.0555 189.916 11.2838C189.99 11.5121 189.995 11.7572 189.93 11.9883C189.865 12.2195 189.734 12.4264 189.552 12.5831L182.57 18.5887L184.688 27.5512C184.744 27.7852 184.729 28.0304 184.646 28.256C184.563 28.4816 184.414 28.6774 184.22 28.819C184.026 28.9605 183.794 29.0413 183.553 29.0513C183.313 29.0613 183.075 28.9999 182.87 28.875L175 24.0881Z" fill="#F2C200"/>
</g>
<defs>
<clipPath id="clip0_2014_75">
<rect width="30" height="30" fill="white"/>
</clipPath>
<clipPath id="clip1_2014_75">
<rect width="30" height="30" fill="white" transform="translate(40)"/>
</clipPath>
<clipPath id="clip2_2014_75">
<rect width="30" height="30" fill="white" transform="translate(80)"/>
</clipPath>
<clipPath id="clip3_2014_75">
<rect width="30" height="30" fill="white" transform="translate(120)"/>
</clipPath>
<clipPath id="clip4_2014_75">
<rect width="30" height="30" fill="white" transform="translate(160)"/>
</clipPath>
</defs>
</svg>
