<svg width="30" height="30" viewBox="0 0 30 30" fill="none" xmlns="http://www.w3.org/2000/svg">
<path d="M15.0003 24.0881L7.13091 28.875C6.92556 28.9997 6.68794 29.0609 6.44789 29.051C6.20784 29.041 5.97608 28.9604 5.78174 28.8191C5.58739 28.6779 5.43913 28.4823 5.35558 28.2571C5.27204 28.0318 5.25693 27.7869 5.31216 27.5531L7.43091 18.5906L0.450288 12.5831C0.26788 12.4265 0.135857 12.2195 0.0708274 11.988C0.0057977 11.7566 0.0106667 11.5111 0.0848217 11.2824C0.158977 11.0537 0.299105 10.8521 0.487578 10.7029C0.676051 10.5536 0.904449 10.4635 1.14404 10.4437L10.324 9.68996L13.8753 1.19434C13.9678 0.972233 14.124 0.782492 14.3242 0.649025C14.5244 0.515557 14.7597 0.444336 15.0003 0.444336C15.2409 0.444336 15.4761 0.515557 15.6763 0.649025C15.8765 0.782492 16.0327 0.972233 16.1253 1.19434L19.6784 9.69184L28.8584 10.4456C29.0976 10.4657 29.3255 10.556 29.5135 10.7051C29.7016 10.8542 29.8415 11.0555 29.9155 11.2838C29.9896 11.5121 29.9947 11.7572 29.93 11.9883C29.8654 12.2195 29.7339 12.4264 29.5522 12.5831L22.5697 18.5887L24.6884 27.5512C24.7441 27.7852 24.7294 28.0304 24.646 28.256C24.5627 28.4816 24.4145 28.6774 24.22 28.819C24.0256 28.9605 23.7936 29.0413 23.5533 29.0513C23.313 29.0613 23.0752 28.9999 22.8697 28.875L15.0003 24.0881Z" fill="#F2C200"/>
</svg>
