<svg width="24" height="24" fill="none" xmlns="http://www.w3.org/2000/svg"><path fill-rule="evenodd" clip-rule="evenodd" d="M22.907 6.07c.159-.535 0-.93-.757-.93h-2.5c-.637 0-.93.34-1.09.716 0 0-1.271 3.132-3.073 5.166-.583.59-.848.777-1.166.777-.159 0-.398-.187-.398-.723V6.07c0-.643-.175-.93-.705-.93H9.286c-.398 0-.637.299-.637.582 0 .608.901.75.994 2.462v3.722c0 .816-.146.964-.464.964-.848 0-2.91-3.146-4.135-6.746-.237-.701-.477-.983-1.116-.983H1.425c-.714 0-.857.34-.857.715 0 .668.848 3.988 3.949 8.38 2.067 2.998 4.977 4.623 7.628 4.623 1.59 0 1.787-.36 1.787-.983V15.61c0-.722.15-.866.654-.866.371 0 1.007.188 2.491 1.633 1.696 1.714 1.975 2.482 2.93 2.482h2.5c.715 0 1.073-.36.867-1.074-.227-.71-1.036-1.74-2.11-2.961-.583-.696-1.457-1.445-1.723-1.82-.37-.482-.265-.696 0-1.124 0 0 3.048-4.337 3.365-5.81h.001z" fill="#F40004"/></svg>