<svg width="24" height="24" fill="none" xmlns="http://www.w3.org/2000/svg"><path d="M3.01 20.994l1.216-4.468A8.952 8.952 0 013.006 12 8.993 8.993 0 0112 3.006 8.993 8.993 0 0120.993 12 8.993 8.993 0 0112 20.994a8.951 8.951 0 01-4.524-1.22l-4.466 1.22zM8.754 7.78a.864.864 0 00-.334.09 1.163 1.163 0 00-.264.205c-.108.102-.169.19-.235.275a2.454 2.454 0 00-.508 1.51c.002.44.117.87.297 1.27.368.811.973 1.67 1.773 2.466.192.192.38.384.582.563A8.497 8.497 0 0013.52 16l.512.079c.166.009.332-.004.5-.012a1.79 1.79 0 00.749-.208c.118-.06.233-.127.344-.198 0 0 .039-.025.113-.08.121-.09.196-.154.296-.26.075-.077.14-.168.19-.271.07-.147.14-.426.168-.66.022-.178.016-.275.013-.335-.004-.096-.084-.196-.17-.238l-.524-.235s-.783-.34-1.26-.558a.448.448 0 00-.16-.037.434.434 0 00-.34.114v-.002c-.004 0-.064.051-.714.84a.315.315 0 01-.331.116 1.271 1.271 0 01-.172-.06c-.112-.046-.15-.064-.227-.097l-.004-.002a5.404 5.404 0 01-1.412-.9c-.114-.098-.219-.206-.327-.31a5.665 5.665 0 01-.917-1.141l-.053-.085a.83.83 0 01-.092-.185c-.034-.132.055-.238.055-.238s.219-.24.32-.369c.085-.107.164-.22.237-.335.106-.171.14-.347.083-.482a75.21 75.21 0 00-.78-1.836c-.053-.12-.21-.207-.354-.224l-.145-.014a3.044 3.044 0 00-.363.004z" fill="#F40004"/></svg>