<svg width="226" height="46" fill="none" xmlns="http://www.w3.org/2000/svg"><path d="M74.042 4.444c1.377.202 2.705.557 3.965 1.047l2.39-4.022 4.626 2.749-2.34 3.94a18.527 18.527 0 013.166 3.175l3.705-2.29 2.83 4.579-3.88 2.398c.48 1.244.828 2.555 1.027 3.913h4.624v5.382h-4.624a18.257 18.257 0 01-1.07 4.027l3.922 2.425-2.83 4.578-3.777-2.335a18.464 18.464 0 01-3.05 3.047l2.298 3.866-4.627 2.75-2.338-3.935c-1.276.5-2.62.862-4.017 1.067v4.444H68.66v-4.444a18.26 18.26 0 01-4.017-1.067l-2.337 3.934-4.627-2.75 2.297-3.865a18.46 18.46 0 01-3.05-3.047l-3.778 2.335-2.818-4.56h12.055a12.777 12.777 0 008.967 3.658 12.78 12.78 0 009.064-3.754 12.778 12.778 0 003.755-9.065 12.78 12.78 0 00-3.755-9.065 12.779 12.779 0 00-9.064-3.754c-3.54 0-6.745 1.435-9.065 3.754a12.877 12.877 0 00-1.923 2.458h-6.169l-3.877-2.396 2.83-4.578 3.704 2.29a18.529 18.529 0 013.167-3.176l-2.34-3.94 4.627-2.749 2.39 4.022a18.23 18.23 0 013.964-1.047V0h5.382v4.444z" fill="#F40004"/><path fill-rule="evenodd" clip-rule="evenodd" d="M9.104 18.026h7.023v2.651h-4.49v1.978h4.49v2.616h-4.49v3.033h4.49v2.651h-7.17V18.026h.147zm11.963 4.945h.622c.3 0 .549-.01.75-.03.2-.02.353-.05.46-.089a.972.972 0 00.488-.373.984.984 0 00.132-.288c.03-.107.045-.225.045-.355 0-.221-.042-.41-.125-.567a.96.96 0 00-.373-.378h-.002c-.122-.075-.302-.131-.54-.17a5.844 5.844 0 00-.922-.061h-.535v2.311zm-2.532-4.945h2.547c.692 0 1.29.033 1.795.097.51.065.923.164 1.238.296.318.134.603.309.856.526.251.216.47.473.652.77.183.297.32.624.412.98a4.6 4.6 0 01.137 1.147c0 .916-.241 1.68-.724 2.29-.24.304-.523.563-.85.776-.325.21-.692.376-1.101.494h-.002c-.242.07-.579.12-1.01.154-.393.03-.866.046-1.418.049v5.35H18.39V18.026h.146zm12.7 4.945h.622c.3 0 .549-.01.75-.03.2-.02.352-.05.46-.089a.972.972 0 00.488-.373.99.99 0 00.132-.288c.03-.107.044-.225.044-.355 0-.221-.041-.41-.124-.567a.96.96 0 00-.373-.378h-.002c-.122-.075-.302-.131-.54-.17a5.844 5.844 0 00-.922-.061h-.535v2.311zm-2.532-4.945h2.546c.692 0 1.29.033 1.795.097.51.065.923.164 1.238.296.318.134.603.309.856.526.252.216.47.473.653.77.183.297.32.624.412.98a4.6 4.6 0 01.137 1.147c0 .916-.242 1.68-.725 2.29a3.495 3.495 0 01-.85.776c-.324.21-.691.376-1.1.494h-.002c-.242.07-.579.12-1.01.154-.394.03-.866.046-1.418.049v5.35h-2.678V18.026h.146zm19.506.147v12.782h-2.678v-7.53l-4.517 7.53h-2.29V18.026h2.678v7.78l4.59-7.78h2.217v.147zm1.847-.147h7.11v2.669h-2.298v10.26h-2.73v-10.26h-2.229v-2.669h.147zm48.655 4.945h.623c.299 0 .548-.01.75-.03.199-.02.352-.05.459-.089a.991.991 0 00.489-.373h-.001a.972.972 0 00.132-.288c.03-.107.045-.225.045-.355 0-.221-.042-.41-.125-.567a.958.958 0 00-.372-.378h-.003c-.121-.075-.301-.131-.54-.17a5.836 5.836 0 00-.922-.061h-.535v2.311zm-2.532-4.945h2.547c.692 0 1.29.033 1.794.097.511.065.924.164 1.239.296.317.134.603.309.856.526.251.216.469.473.652.77.183.297.321.624.412.98.092.355.137.738.137 1.147 0 .916-.242 1.68-.725 2.29h.001c-.24.304-.523.563-.85.776-.325.21-.692.376-1.102.494h-.001c-.242.07-.579.12-1.011.154-.393.03-.865.046-1.417.049v5.35h-2.678V18.026h.146zm19.507.147v12.782h-2.679v-7.53l-4.517 7.53h-2.29V18.026h2.679v7.78l4.589-7.78h2.217v.147h.001zm7.963 5.062v-2.558h-.512c-.296 0-.55.009-.762.026a2.762 2.762 0 00-.494.077h-.001a.933.933 0 00-.309.147 1.047 1.047 0 00-.249.259h-.001a1.132 1.132 0 00-.165.354 1.61 1.61 0 00-.057.443c0 .239.037.44.111.6a.836.836 0 00.317.367c.15.093.349.163.596.211a4.9 4.9 0 00.918.074h.608zm2.678-5.062v12.782h-2.678V25.85h-.363l-2.544 5.104h-2.95l2.886-5.557c-.772-.25-1.361-.644-1.765-1.183-.433-.577-.65-1.314-.65-2.211 0-.316.023-.612.068-.89.045-.279.113-.536.202-.772a3.55 3.55 0 01.331-.661 3.224 3.224 0 011.622-1.291h.001a7.21 7.21 0 01.582-.181 3.02 3.02 0 01.465-.088c.129-.012.369-.025.719-.04.346-.016.808-.033 1.385-.054h2.69v.146h-.001zM.147 18.026h7.11v2.669H4.96v10.26H2.23v-10.26H0v-2.669h.147z" fill="#000"/><path d="M223.415 17.635H226v12.818h-2.877V17.635h.292zm-12.019 0h2.635v4.617h3.46v-4.617h2.911v12.818h-2.911v-5.367h-3.46v5.367h-2.928V17.635h.293zm-2.906 2.175l-1.951 1.738-.189-.266c-.279-.392-.557-.684-.834-.875-.254-.175-.506-.262-.757-.262-.12 0-.227.015-.321.046a.688.688 0 00-.379.302.333.333 0 00-.038.157c0 .071.011.14.034.204a.753.753 0 00.111.203c.084.109.261.288.53.537.28.26.653.588 1.119.986.431.365.785.669 1.063.913.274.24.46.411.559.512.241.247.449.49.624.73.179.247.321.486.427.72l.001.002c.105.235.184.483.237.743.054.26.08.526.08.8 0 .54-.093 1.036-.28 1.487a3.53 3.53 0 01-.842 1.212c-.372.354-.801.62-1.288.797a4.641 4.641 0 01-1.601.264c-.457 0-.886-.058-1.289-.172a3.979 3.979 0 01-1.125-.516l-.001-.002a4.419 4.419 0 01-.959-.884 6.641 6.641 0 01-.787-1.24l-.119-.24 2.432-1.481.147.27c.273.505.562.88.867 1.125.282.227.578.34.89.34.167 0 .317-.024.452-.07a1.101 1.101 0 00.591-.494.662.662 0 00.069-.3.91.91 0 00-.059-.315 1.4 1.4 0 00-.19-.344 4.013 4.013 0 00-.455-.487 16.91 16.91 0 00-.84-.732 25.018 25.018 0 01-1.647-1.458c-.442-.434-.765-.808-.969-1.122a4.095 4.095 0 01-.467-.952 3.196 3.196 0 01.105-2.27c.176-.4.438-.766.785-1.095.347-.33.737-.578 1.169-.744.43-.166.897-.249 1.4-.249a3.993 3.993 0 011.858.456c.294.153.598.366.912.64.308.267.625.594.953.979l.184.216-.212.19zm-12.141-2.175h2.585v12.818h-2.877V17.635h.292zm-7.746 7.468v2.55h.292c.469 0 .857-.028 1.163-.086.284-.053.493-.128.626-.224a.881.881 0 00.287-.338c.065-.137.097-.3.097-.49 0-.22-.039-.415-.119-.584a1.19 1.19 0 00-.358-.431c-.165-.127-.391-.224-.679-.29a5.021 5.021 0 00-1.116-.107h-.193zm0-4.668v2.004h.221c.262 0 .485-.026.671-.078.172-.048.311-.118.417-.21l.001-.002a.857.857 0 00.233-.315c.053-.125.08-.272.08-.44 0-.153-.025-.286-.074-.4a.81.81 0 00-.218-.291c-.1-.085-.23-.15-.391-.195a2.331 2.331 0 00-.626-.073h-.314zm-2.877 9.726V17.634h2.202c.563 0 1.052.018 1.465.055.42.037.768.094 1.043.171.392.106.745.256 1.059.452.317.198.593.44.828.727v.001c.236.29.414.608.534.953.119.343.178.71.178 1.097a3.3 3.3 0 01-.08.73 2.91 2.91 0 01-.244.672 2.94 2.94 0 01-.425.614c-.08.09-.168.18-.263.267.225.129.43.269.615.419.291.237.531.5.717.788.186.286.326.599.419.938.092.338.138.697.138 1.078a3.768 3.768 0 01-.573 2.031h-.001c-.192.306-.41.574-.655.8-.247.23-.522.42-.825.572a3.94 3.94 0 01-1.073.343c-.405.073-.858.11-1.362.11h-3.697v-.293zm-11.272-12.526h2.602v8.206c0 .643.051 1.088.154 1.333a1.111 1.111 0 00.468.543c.114.07.237.121.37.156.137.035.291.053.46.053.179 0 .343-.02.492-.06.145-.04.279-.099.401-.178h.001c.123-.079.225-.166.307-.262.081-.096.143-.2.187-.314v-.001c.047-.12.083-.307.108-.558.027-.263.04-.598.04-1.004v-7.914h2.894v7.584c0 .622-.017 1.15-.052 1.587a5.54 5.54 0 01-.165 1.054 3.554 3.554 0 01-.326.767 4.473 4.473 0 01-.521.724 4.156 4.156 0 01-.671.624 3.81 3.81 0 01-.773.44 4.17 4.17 0 01-.881.258 5.503 5.503 0 01-.991.086c-.462 0-.896-.054-1.303-.163a4.157 4.157 0 01-1.141-.492l-.001-.001a4.324 4.324 0 01-.898-.739 3.551 3.551 0 01-.608-.917l-.001-.001c-.15-.333-.263-.772-.336-1.32a14.51 14.51 0 01-.108-1.907v-7.584h.292zm-2.839 2.175l-1.95 1.738-.189-.266c-.28-.392-.558-.684-.834-.875-.254-.175-.507-.262-.757-.262a1.02 1.02 0 00-.321.046.679.679 0 00-.379.302.334.334 0 00-.039.157c0 .071.012.14.035.204a.726.726 0 00.111.203h-.001c.085.109.262.288.531.537.28.26.653.588 1.119.986.431.365.785.669 1.063.913.274.24.46.411.558.512.241.247.449.49.625.73.179.247.321.486.427.72l.001.002c.104.235.184.483.237.743.053.26.08.526.08.8 0 .54-.093 1.036-.28 1.487a3.53 3.53 0 01-.842 1.212c-.372.354-.801.62-1.288.797a4.641 4.641 0 01-1.601.264c-.457 0-.887-.058-1.289-.172a3.979 3.979 0 01-1.125-.516l-.002-.002a4.414 4.414 0 01-.958-.884 6.59 6.59 0 01-.787-1.24l-.119-.24 2.432-1.481.147.27c.273.505.562.88.867 1.125.282.227.578.34.889.34.167 0 .318-.024.452-.07a1.095 1.095 0 00.591-.494.662.662 0 00.069-.3.91.91 0 00-.058-.315 1.406 1.406 0 00-.191-.344 4.013 4.013 0 00-.455-.487c-.222-.21-.502-.454-.84-.732a25.549 25.549 0 01-1.647-1.458c-.441-.434-.764-.808-.968-1.122a4.055 4.055 0 01-.467-.952 3.197 3.197 0 01.105-2.27c.176-.4.437-.766.784-1.095.348-.33.738-.578 1.17-.744a3.85 3.85 0 011.399-.249 4.007 4.007 0 011.859.456c.294.153.598.366.912.64.307.267.624.594.952.979l.184.216-.212.19zm-15.513-2.175h6.983v2.885h-2.208v9.933h-2.928V20.52h-2.14v-2.885h.293zm-4.413 0h2.585v12.818h-2.878V17.635h.293zm-14.544 0h2.444l2.607 7.897 2.621-7.897h2.684l2.125 12.818h-2.813l-1.138-6.81-2.258 6.81h-2.455l-2.249-6.813-1.161 6.813h-2.84l2.187-12.818h.246z" fill="#000"/><path fill-rule="evenodd" clip-rule="evenodd" d="M73.838 17.919l-3.15-5.427-3.134 5.427 3.134 5.442 3.15-5.442zm0 10.869h6.269l-3.135-5.427h-6.284l3.15 5.427z" fill="#F40004"/><path fill-rule="evenodd" clip-rule="evenodd" d="M67.553 28.788h-6.269l3.135-5.427h6.269l-3.135 5.427z" fill="#F40004"/></svg>