<svg xmlns="http://www.w3.org/2000/svg" version="1.1" xmlns:xlink="http://www.w3.org/1999/xlink" xmlns:svgjs="http://svgjs.dev/svgjs" width="32" height="32"><svg width="32" height="32" viewBox="0 0 32 32" fill="none" xmlns="http://www.w3.org/2000/svg">
<rect width="32" height="32" fill="white"></rect>
<path d="M17.6118 4.7022C18.46 4.8251 19.2777 5.0411 20.0537 5.33892L21.5256 2.89311L24.3755 4.5649L22.9338 6.96044C23.293 7.23867 23.6349 7.53788 23.9574 7.85615C24.2873 8.18188 24.5969 8.52771 24.8843 8.89157L27.1658 7.49922L28.9088 10.2832L26.5193 11.7415C26.8148 12.4985 27.0292 13.2952 27.1521 14.1214H30V17.3943H27.1519C27.0253 18.2454 26.8016 19.0652 26.4923 19.8427L28.9088 21.3176L27.1658 24.1016L24.8388 22.6815C24.5644 23.0244 24.2699 23.351 23.9574 23.6595C23.6429 23.97 23.3102 24.2621 22.9608 24.5344L24.3756 26.8853L21.5258 28.557L20.0861 26.1646C19.3003 26.469 18.4718 26.689 17.6119 26.8137V29.5159H14.297V26.8137C13.437 26.689 12.6086 26.4689 11.8229 26.1646L10.3831 28.557L7.5333 26.8853L8.94813 24.5344C8.59872 24.2621 8.26582 23.97 7.95153 23.6595C7.639 23.351 7.34473 23.0242 7.07012 22.6813L4.74316 24.1014L3.00719 21.3287H10.432C11.8557 22.7047 13.8048 23.5529 15.9548 23.5529C18.1352 23.5529 20.1091 22.6804 21.5379 21.2699C22.9668 19.8593 23.8503 17.9105 23.8503 15.7577C23.8503 13.6048 22.9666 11.656 21.5379 10.2454C20.1092 8.83489 18.1354 7.96241 15.9548 7.96241C13.7743 7.96241 11.8004 8.83489 10.3717 10.2454C9.91838 10.693 9.51998 11.1949 9.18726 11.7401H5.38771L3 10.2829L4.74298 7.49887L7.02447 8.89123C7.31189 8.52754 7.62144 8.18153 7.95136 7.8558C8.27372 7.53753 8.61557 7.23833 8.97499 6.9601L7.5333 4.56456L10.3831 2.89276L11.855 5.33857C12.6313 5.04058 13.4488 4.82476 14.297 4.70185V2H17.6119V4.7022H17.6118Z" fill="#F40004"></path>
<path fill-rule="evenodd" clip-rule="evenodd" d="M17.4878 12.8964L15.5477 9.59631L13.6172 12.8964L15.5477 16.2058L17.4878 12.8964Z" fill="#F40004"></path>
<path fill-rule="evenodd" clip-rule="evenodd" d="M17.4861 19.506H21.3472L19.4166 16.2059H15.5459L17.4861 19.506Z" fill="#F40004"></path>
<path fill-rule="evenodd" clip-rule="evenodd" d="M13.6161 19.506H9.75488L11.6856 16.2059H15.5466L13.6161 19.506Z" fill="#F40004"></path>
</svg><style>@media (prefers-color-scheme: light) { :root { filter: none; } }
@media (prefers-color-scheme: dark) { :root { filter: none; } }
</style></svg>